# xmcd
#
# Track frame offsets:
#	150
#	12685
#	24680
#	38257
#	52035
#	64315
#	79112
#	90790
#	103877
#	114362
#	126860
#	137755
#	150690
#	162947
#	173172
#	181580
#	191810
#	204705
#
# Disc length: 2896 seconds
#
# Revision: 1
# Processed by: cddbd v1.5.2PL0 Copyright (c) Steve Scherf et al.
# Submitted via: audiograbber 1.83.01
#
DISCID=ee0b4e12
DTITLE=Various Artist - Stand by Your Man - 18 Country Hits
DYEAR=1999
DGENRE=Country
TTITLE0=Ring of Fire - Johnny Cash
TTITLE1=Stand By Your Man - Wanda Jackson
TTITLE2=Ruby Don't Take Your Love to Town - Kenny Rogers
TTITLE3=Wichita Lineman - Glen Campbell
TTITLE4=Crazy - Patsy Cline
TTITLE5=I Recall a Gypsy Woman - Don Williams
TTITLE6=Don't It Make My Brown Eyes Blue - Crystal Gayle
TTITLE7=A Little Bit More - Dr Hook
TTITLE8=Rose Marie - Slim Whiteman
TTITLE9=What I've Got In Mind - Billie Jo Spears
TTITLE10=Hello Walls - Willie Nelson
TTITLE11=I'll Never Fall in Love Again - Bobbie Gentry
TTITLE12=Your Cheatin Heart - Hank Williams
TTITLE13=Walkin' After Midnight - Loretta Lynn
TTITLE14=Jambalaya - Conwy Twitty
TTITLE15=Why Baby Why - George Jones
TTITLE16=Always on My Mind - Brenda Lee
TTITLE17=These Boots Are Made For Walkin - Billy Ray Cyrus
EXTD=EMI
EXTT0=
EXTT1=
EXTT2=
EXTT3=
EXTT4=
EXTT5=
EXTT6=
EXTT7=
EXTT8=
EXTT9=
EXTT10=
EXTT11=
EXTT12=
EXTT13=
EXTT14=
EXTT15=
EXTT16=
EXTT17=
PLAYORDER=
